# xmcd CD database file
#
# Track frame offsets:
#	150
#	12304
#	25865
#	41513
#	53492
#	69547
#	82766
#	97756
#	112423
#	126920
#	138708
#	150921
#	164170
#	177935
#	192740
#	207512
#	221748
#	237142
#	251558
#	268453
#
# Disc length: 3754 seconds
#
# Revision: 2
# Processed by: cddbd v1.5.2PL0 Copyright (c) Steve Scherf et al.
# Submitted via: CDex 1.51
#
DISCID=260ea814
DTITLE=Maria Cecília e Rodolfo - As melhores
DYEAR=2011
DGENRE=Sertanejo Universitário
TTITLE0=Os dias vão
TTITLE1=Três palavras
TTITLE2=Coisas Esotéricas
TTITLE3=O troco (part. Exaltasamba)
TTITLE4=A fila andou
TTITLE5=Tchau tchau
TTITLE6=Você de volta
TTITLE7=Mais nem meu coração
TTITLE8=Tentativas em vão
TTITLE9=Nunca mais me solta
TTITLE10=Mato e morro por você
TTITLE11=Amor transparente
TTITLE12=Quem ama cuida
TTITLE13=Eu te quero sim (part. Gusttavo Lima)
TTITLE14=Basta você me olhar
TTITLE15=Só passando pelo que eu passei
TTITLE16=Estranho love
TTITLE17=Presente de Deus
TTITLE18=Primeiro Passo
TTITLE19=Eu quero te levar
EXTD=YEAR: 2011
EXTT0=
EXTT1=
EXTT2=
EXTT3=
EXTT4=
EXTT5=
EXTT6=
EXTT7=
EXTT8=
EXTT9=
EXTT10=
EXTT11=
EXTT12=
EXTT13=
EXTT14=
EXTT15=
EXTT16=
EXTT17=
EXTT18=
EXTT19=
PLAYORDER=
